<svg width="160" height="32" viewBox="0 0 160 32" fill="none" xmlns="http://www.w3.org/2000/svg">
<path d="M18.363 18.2817L14.3685 20.7485C13.7798 21.1069 13.2749 20.9277 13.2749 20.2554V14.5627C13.3145 14.1942 13.4339 13.8405 13.6236 13.5295C13.8134 13.2185 14.0684 12.9586 14.3685 12.7704L18.363 10.3059C18.9524 9.94746 19.4573 10.1267 19.4573 10.799V16.4895C19.4037 16.8534 19.2785 17.2012 19.0899 17.5101C18.9013 17.8189 18.6536 18.0819 18.363 18.2817Z" fill="#FE7603"/>
<path d="M25.6022 13.7115L21.563 16.2207C20.9736 16.5791 20.4688 16.3999 20.4688 15.7283V10.04C20.5085 9.6714 20.628 9.31761 20.8179 9.00649C21.0077 8.69537 21.2628 8.43541 21.563 8.24706L25.5603 5.7833C26.149 5.42485 26.6539 5.60407 26.6539 6.2756V11.9661C26.5701 12.6808 26.1909 13.3531 25.6022 13.7115Z" fill="#FE7603"/>
<path d="M7.00619 18.2817L11.0035 20.7485C11.5929 21.1069 12.0978 20.9277 12.0978 20.2554V14.5627C12.058 14.1941 11.9385 13.8405 11.7486 13.5295C11.5587 13.2185 11.3036 12.9586 11.0035 12.7704L7.00619 10.3059C6.4175 9.94746 5.9126 10.1267 5.9126 10.799V16.4895C5.93514 16.8631 6.04759 17.2242 6.23912 17.538C6.43065 17.8519 6.69481 18.108 7.00619 18.2817Z" fill="#3A3A3A"/>
<path d="M7.00619 27.5567L11.0035 30.0212C11.5929 30.3797 12.0978 30.2004 12.0978 29.5282V23.883C12.0581 23.5144 11.9386 23.1607 11.7487 22.8497C11.5588 22.5387 11.3037 22.2789 11.0035 22.0908L7.00619 19.6263C6.4175 19.2678 5.9126 19.447 5.9126 20.1186V25.7645C5.93508 26.1381 6.0475 26.4992 6.23903 26.8131C6.43057 27.127 6.69477 27.3831 7.00619 27.5567Z" fill="#3A3A3A"/>
<path d="M17.9873 9.18553L13.6534 12.0531C13.3578 12.2294 13.0246 12.3219 12.6858 12.3219C12.347 12.3219 12.0139 12.2294 11.7183 12.0531L7.42631 9.18553C7.30863 9.12928 7.20872 9.038 7.13863 8.92268C7.06854 8.80737 7.03125 8.67293 7.03125 8.53556C7.03125 8.3982 7.06854 8.26376 7.13863 8.14845C7.20872 8.03313 7.30863 7.94185 7.42631 7.8856L11.7602 5.01802C12.0558 4.84176 12.3889 4.74921 12.7277 4.74921C13.0665 4.74921 13.3997 4.84176 13.6953 5.01802L18.0292 7.88263C18.185 7.98938 18.2975 8.15459 18.3443 8.3455C18.3911 8.53641 18.3689 8.73908 18.282 8.91335C18.1975 9.00631 18.1137 9.14091 17.9873 9.18553Z" fill="#053A8C"/>
<path d="M10.9604 4.43612L6.62648 7.3037C6.33074 7.47996 5.9975 7.57251 5.65859 7.57251C5.31968 7.57251 4.98644 7.47996 4.69069 7.3037L0.399415 4.43612C0.317688 4.40004 0.243775 4.3465 0.182238 4.2788C0.120701 4.21111 0.0728478 4.1307 0.0416321 4.04254C0.0104164 3.95439 -0.0034989 3.86035 0.000745353 3.76624C0.00498961 3.67213 0.0273033 3.57995 0.0663088 3.49538C0.131864 3.33484 0.252151 3.20675 0.402907 3.13694L4.73329 0.269359C5.0288 0.0927541 5.36198 0 5.70084 0C6.0397 0 6.37288 0.0927541 6.66838 0.269359L11.0023 3.13694C11.1633 3.22682 11.2845 3.38068 11.3397 3.56515C11.3949 3.74962 11.3795 3.94981 11.297 4.1223C11.2175 4.26103 11.1 4.37054 10.9604 4.43612Z" fill="#053A8C"/>
<path d="M33.0469 25.8094C33 25.7277 32.9711 25.6356 32.9624 25.5402V3.58422C32.971 3.48905 32.9999 3.39723 33.0469 3.31575C33.1234 3.26573 33.2096 3.23495 33.299 3.22577H36.1182C36.2078 3.23494 36.2942 3.26571 36.371 3.31575C36.4028 3.35106 36.4268 3.39348 36.4413 3.43992C36.4558 3.48636 36.4604 3.53565 36.4548 3.58422V25.5402C36.446 25.6355 36.4174 25.7275 36.371 25.8094C36.3377 25.8433 36.2977 25.8689 36.254 25.8844C36.2103 25.8998 36.1639 25.9047 36.1182 25.8987H33.299C33.1726 25.9433 33.0888 25.8987 33.0469 25.8094Z" fill="#3A3A3A"/>
<path d="M49.2068 10.4856C49.88 11.4276 50.2166 12.7719 50.2166 14.5185V25.5821C50.2077 25.6774 50.1788 25.7694 50.1321 25.8513C50.099 25.8851 50.0591 25.9107 50.0155 25.9262C49.9719 25.9416 49.9256 25.9465 49.88 25.9405H47.0629C46.8946 25.9859 46.7682 25.8513 46.7263 25.672V14.8316C46.7631 14.196 46.6002 13.5655 46.2633 13.0394C45.9686 12.5932 45.4638 12.3701 44.9589 12.3701C44.6936 12.3516 44.4282 12.403 44.1861 12.5198C43.9439 12.6365 43.7325 12.815 43.5706 13.0394C43.196 13.5819 43.0169 14.2495 43.0657 14.9209V25.5821C43.0567 25.6774 43.0278 25.7694 42.9812 25.8513C42.948 25.8851 42.9082 25.9107 42.8646 25.9262C42.821 25.9416 42.7747 25.9465 42.7291 25.9405H39.9078C39.8183 25.9313 39.7319 25.9008 39.655 25.8513C39.6232 25.8158 39.5991 25.7733 39.5846 25.7267C39.5701 25.6801 39.5655 25.6307 39.5712 25.5821V9.72337C39.5799 9.62809 39.6085 9.5361 39.655 9.45416C39.6883 9.42026 39.7282 9.39467 39.772 9.37924C39.8157 9.36381 39.8621 9.35891 39.9078 9.36492H42.771C42.8602 9.37418 42.9464 9.40468 43.0231 9.45416C43.0551 9.48949 43.0793 9.532 43.0939 9.57857C43.1086 9.62515 43.1132 9.67462 43.1076 9.72337V10.3927C43.109 10.4158 43.1183 10.4376 43.1337 10.454C43.1492 10.4704 43.1696 10.4803 43.1914 10.4819C43.234 10.4819 43.2759 10.4373 43.3597 10.3927C44.0755 9.50027 45.1691 9.04812 46.2633 9.09274C46.8242 9.04481 47.3873 9.14717 47.9015 9.39047C48.4156 9.63376 48.8644 10.0103 49.2068 10.4856Z" fill="#3A3A3A"/>
<path d="M54.1315 24.7802C53.1217 23.7941 52.6168 22.3603 52.6587 20.9265V14.3398C52.6403 13.624 52.7618 12.912 53.0153 12.2487C53.2688 11.5855 53.6489 10.9856 54.1315 10.4869C55.0993 9.50153 56.4038 9.0531 58.0868 9.0531C59.7698 9.0531 61.0743 9.54615 62.0422 10.4869C62.52 10.9324 62.8996 11.4845 63.154 12.1041C63.4085 12.7237 63.5315 13.3954 63.5143 14.0714V14.5176C63.5056 14.6126 63.477 14.7044 63.4305 14.786C63.3973 14.8201 63.3574 14.8459 63.3137 14.8615C63.2699 14.8771 63.2235 14.882 63.1777 14.876L60.3592 15.0106C60.1909 15.0552 60.0226 14.9206 59.98 14.6968V14.2937C59.98 13.756 59.8117 13.2184 59.4332 12.8592C58.7181 12.0977 57.5819 12.0977 56.8242 12.8592L56.7404 12.9492C56.4118 13.4309 56.235 14.0113 56.2355 14.6068V20.6112C56.1936 21.1935 56.4038 21.8211 56.7404 22.2695C56.9033 22.4815 57.1089 22.6517 57.342 22.7676C57.5751 22.8835 57.8296 22.942 58.0868 22.9388C58.5894 22.9371 59.0719 22.7285 59.4332 22.3565C59.7698 21.9535 59.98 21.4604 59.98 20.9228V20.6089C59.989 20.5138 60.0179 20.4221 60.0645 20.3405C60.0976 20.3064 60.1374 20.2806 60.181 20.265C60.2246 20.2494 60.271 20.2445 60.3166 20.2505L63.1358 20.2951C63.2253 20.3046 63.3117 20.3354 63.3886 20.3851C63.4204 20.4204 63.4444 20.4628 63.4589 20.5093C63.4734 20.5557 63.478 20.605 63.4724 20.6536V21.2366C63.5143 22.6258 62.9675 23.9249 61.9996 24.8657C61.0317 25.8064 59.7279 26.2549 58.0449 26.2549C56.4038 26.1693 55.0993 25.7209 54.1315 24.7802Z" fill="#3A3A3A"/>
<path d="M72.9826 9.45422C73.0159 9.42032 73.0558 9.39473 73.0995 9.3793C73.1432 9.36386 73.1896 9.35897 73.2354 9.36498H76.0545C76.1438 9.37424 76.2299 9.40473 76.3066 9.45422C76.3387 9.48955 76.3629 9.53205 76.3775 9.57863C76.3921 9.62521 76.3968 9.67468 76.3911 9.72343V25.5405C76.3824 25.6359 76.3535 25.7279 76.3066 25.8097C76.2735 25.8436 76.2337 25.8691 76.1901 25.8846C76.1464 25.9 76.1001 25.9049 76.0545 25.8989H73.2354C73.1896 25.906 73.1429 25.9017 73.099 25.8862C73.0551 25.8707 73.0153 25.8445 72.9826 25.8097C72.9499 25.7749 72.9253 25.7324 72.9107 25.6856C72.8962 25.6389 72.8921 25.5892 72.8988 25.5405V24.8236C72.8988 24.779 72.8569 24.7336 72.8569 24.689C72.8569 24.6444 72.7724 24.689 72.7305 24.779C72.1411 25.7197 71.2158 26.1681 69.9113 26.1681C69.3656 26.1945 68.8205 26.105 68.3076 25.9049C67.7948 25.7049 67.3244 25.3982 66.9238 25.0028C66.1663 24.1962 65.7876 22.9862 65.7876 21.373V9.77176C65.7962 9.67659 65.8251 9.58478 65.8721 9.5033C65.9486 9.45327 66.0348 9.4225 66.1242 9.41332H68.9434C69.033 9.42249 69.1194 9.45326 69.1962 9.5033C69.228 9.53861 69.252 9.58103 69.2665 9.62746C69.281 9.6739 69.2856 9.7232 69.28 9.77176V20.5668C69.28 22.1801 69.8691 22.9867 71.0475 22.9867C71.5943 23.0313 72.0992 22.7636 72.4358 22.2698C72.7724 21.7322 72.9826 21.0599 72.9407 20.3876V9.76805C72.8569 9.58882 72.8988 9.49958 72.9826 9.45422Z" fill="#3A3A3A"/>
<path d="M88.8014 10.4401C89.5591 11.3809 89.9376 12.68 89.9376 14.2938V20.9251C90.0221 22.3142 89.601 23.658 88.8014 24.7787C88.0444 25.7641 86.9921 26.2125 85.6038 26.2125C85.1005 26.2316 84.5989 26.1422 84.1289 25.9496C83.659 25.757 83.2305 25.4652 82.8691 25.0918C82.8524 25.0749 82.8324 25.0621 82.8106 25.0544C82.7887 25.0467 82.7655 25.0442 82.7427 25.0472C82.7008 25.0918 82.7008 25.0918 82.7008 25.1818V25.5819C82.6918 25.6772 82.663 25.7692 82.6163 25.8511C82.5831 25.885 82.5433 25.9106 82.4997 25.926C82.4561 25.9415 82.4098 25.9464 82.3642 25.9404H79.545C79.4555 25.9311 79.3691 25.9006 79.2922 25.8511C79.2604 25.8157 79.2363 25.7731 79.2218 25.7266C79.2073 25.68 79.2028 25.6306 79.2084 25.5819V3.62887C79.2171 3.53383 79.2457 3.44208 79.2922 3.36041C79.3254 3.32629 79.3653 3.30051 79.409 3.28494C79.4528 3.26937 79.4992 3.26441 79.545 3.27043H82.3642C82.4535 3.27996 82.5396 3.31071 82.6163 3.36041C82.6483 3.39559 82.6725 3.43797 82.6871 3.48443C82.7018 3.53089 82.7064 3.58024 82.7008 3.62887V10.1731C82.7021 10.1964 82.7113 10.2184 82.7267 10.235C82.7422 10.2515 82.7627 10.2615 82.7846 10.2631C82.8265 10.2631 82.8691 10.2185 82.9529 10.1731C83.7056 9.49187 84.6579 9.11157 85.6457 9.0978C86.2327 9.05361 86.8215 9.1514 87.368 9.38386C87.9145 9.61632 88.4045 9.97741 88.8014 10.4401ZM85.8985 12.9492C85.1834 12.1877 84.0472 12.0977 83.2895 12.8146C82.9586 13.186 82.7398 13.6542 82.661 14.1592V21.1043C82.7036 21.5973 82.9557 22.0904 83.2895 22.4488C83.626 22.7666 84.0604 22.9418 84.5102 22.9411C85.0151 22.9411 85.5619 22.718 85.8985 22.3142C86.2351 21.868 86.4453 21.2389 86.4033 20.6559V14.65C86.4397 14.3445 86.4134 14.0342 86.3262 13.7406C86.2391 13.447 86.0931 13.177 85.8985 12.9492Z" fill="#3A3A3A"/>
<path d="M90.7792 25.81C90.7585 25.7606 90.7478 25.7072 90.7478 25.6531C90.7478 25.599 90.7585 25.5456 90.7792 25.4962L95.155 14.6974C95.1755 14.6727 95.1868 14.6408 95.1868 14.6078C95.1868 14.5748 95.1755 14.5429 95.155 14.5182L90.7792 3.62941C90.7373 3.58479 90.7373 3.54017 90.7373 3.45018C90.7373 3.27096 90.8211 3.18172 91.0739 3.18172H94.1466C94.2392 3.17731 94.3305 3.20572 94.4064 3.26251C94.4822 3.31929 94.5382 3.40125 94.5656 3.49555L97.1341 10.5753C97.1767 10.6199 97.1767 10.6645 97.2186 10.6645C97.2403 10.6629 97.2608 10.653 97.2762 10.6366C97.2916 10.6202 97.3009 10.5984 97.3024 10.5753L99.8248 3.49555C99.8522 3.40125 99.9082 3.31929 99.984 3.26251C100.06 3.20572 100.151 3.17731 100.244 3.18172H103.231C103.4 3.18172 103.483 3.22634 103.526 3.31632C103.547 3.36557 103.557 3.41891 103.557 3.47287C103.557 3.52682 103.547 3.58017 103.526 3.62941L99.1097 14.4274C99.0894 14.4523 99.0783 14.4841 99.0783 14.5171C99.0783 14.55 99.0894 14.5818 99.1097 14.6067L103.489 25.4062C103.532 25.4508 103.532 25.4962 103.532 25.5854C103.532 25.7646 103.447 25.8546 103.195 25.8546H100.207C100.106 25.8783 100.001 25.8586 99.9143 25.7998C99.8274 25.7409 99.7661 25.6478 99.7438 25.5408L97.2193 18.5057C97.1774 18.4611 97.1774 18.4165 97.1348 18.4165C97.113 18.418 97.0926 18.4279 97.0771 18.4444C97.0617 18.4608 97.0524 18.4826 97.051 18.5057L94.4804 25.5408C94.4694 25.5937 94.4487 25.6439 94.4195 25.6883C94.3903 25.7327 94.3532 25.7706 94.3103 25.7997C94.2674 25.8289 94.2195 25.8487 94.1693 25.8581C94.1192 25.8676 94.0678 25.8664 94.0181 25.8546H91.0725C90.9049 25.9439 90.8204 25.8993 90.7792 25.81Z" fill="#3A3A3A"/>
<path d="M115.058 10.4855C115.815 11.4263 116.195 12.7262 116.195 14.3392V20.8835C116.195 22.5414 115.816 23.8408 115.058 24.7818C114.301 25.7225 113.249 26.171 111.861 26.171C111.373 26.1727 110.888 26.0815 110.43 25.9017C109.935 25.7167 109.488 25.4097 109.125 25.0056C109.109 24.9887 109.089 24.9759 109.067 24.9681C109.046 24.9604 109.022 24.958 109 24.961C108.957 25.0056 108.957 25.0056 108.957 25.0949V31.6391C108.948 31.7344 108.92 31.8264 108.873 31.9083C108.84 31.9422 108.8 31.9678 108.756 31.9833C108.713 31.9987 108.666 32.0036 108.621 31.9976H105.801C105.712 31.9883 105.626 31.9578 105.549 31.9083C105.517 31.873 105.493 31.8305 105.478 31.7839C105.464 31.7373 105.459 31.6879 105.465 31.6391V9.67866C105.474 9.58333 105.503 9.49135 105.549 9.40945C105.582 9.37557 105.622 9.34998 105.666 9.33455C105.709 9.31911 105.756 9.31421 105.801 9.32021H108.621C108.71 9.32946 108.796 9.35996 108.873 9.40945C108.905 9.44491 108.929 9.48745 108.944 9.53401C108.958 9.58057 108.963 9.62998 108.957 9.67866V10.0817C108.959 10.1049 108.968 10.1268 108.984 10.1431C108.999 10.1595 109.02 10.1694 109.042 10.171C109.084 10.171 109.125 10.1263 109.21 10.0817C109.967 9.41243 110.935 9.00638 111.903 9.051C112.495 9.03405 113.083 9.15345 113.628 9.40104C114.172 9.64862 114.66 10.0186 115.058 10.4855ZM112.155 12.95C111.993 12.7258 111.782 12.5474 111.539 12.4307C111.297 12.314 111.032 12.2625 110.766 12.2807C110.509 12.2775 110.255 12.336 110.022 12.4519C109.789 12.5677 109.583 12.738 109.42 12.95C109.084 13.4431 108.873 14.0254 108.915 14.6077V20.612C108.873 21.1943 109.084 21.822 109.42 22.2704C109.591 22.4691 109.799 22.6274 110.031 22.7354C110.263 22.8434 110.513 22.8985 110.766 22.8973C111.271 22.8973 111.819 22.6742 112.155 22.2704C112.492 21.8242 112.702 21.1943 112.66 20.612V14.6501C112.702 14.0246 112.492 13.4424 112.155 12.9493V12.95Z" fill="#3A3A3A"/>
<path d="M129.193 18.9099C129.159 18.9438 129.119 18.9694 129.076 18.9848C129.032 19.0003 128.986 19.0052 128.94 18.9992H122.166C122.082 18.9992 121.998 19.0438 121.998 19.1338V20.6568C121.955 21.2398 122.166 21.8667 122.503 22.3152C122.666 22.5271 122.871 22.6973 123.104 22.8131C123.337 22.929 123.592 22.9875 123.849 22.9845C124.299 22.9852 124.733 22.8097 125.069 22.4914C125.409 22.175 125.645 21.751 125.742 21.2815C125.766 21.1929 125.815 21.1147 125.883 21.0582C125.951 21.0017 126.034 20.97 126.121 20.9676L128.814 21.1022C128.903 21.1115 128.99 21.142 129.066 21.1915C129.151 21.2815 129.151 21.3707 129.151 21.5053C128.983 23.0291 128.478 24.1937 127.594 25.0005C126.709 25.8074 125.448 26.2105 123.849 26.2105C122.166 26.2105 120.862 25.7174 119.894 24.7767C118.884 23.7906 118.379 22.3568 118.421 20.923V14.3393C118.403 13.6235 118.524 12.9115 118.777 12.2482C119.031 11.585 119.411 10.9851 119.894 10.4864C120.862 9.50104 122.166 9.05261 123.849 9.05261C125.291 8.97695 126.705 9.48974 127.804 10.4864C128.814 11.4725 129.319 12.9063 129.277 14.3401V18.5968C129.274 18.7071 129.245 18.8148 129.193 18.9099ZM122.545 12.9502C122.216 13.4319 122.039 14.0123 122.04 14.6078V16.087C122.04 16.1762 122.082 16.2662 122.166 16.2662H125.658C125.742 16.2662 125.826 16.2208 125.826 16.1316V14.6509C125.868 14.0679 125.658 13.441 125.321 12.9926C124.942 12.5895 124.437 12.3233 123.89 12.3233C123.637 12.3222 123.387 12.3774 123.155 12.4853C122.923 12.5933 122.715 12.7516 122.545 12.9502Z" fill="#3A3A3A"/>
<path d="M139.419 9.45462C139.501 9.49745 139.565 9.57284 139.597 9.66486C139.628 9.75688 139.625 9.8583 139.587 9.94767L139.082 12.9499C139.04 13.2191 138.914 13.3083 138.663 13.173C138.405 13.0851 138.135 13.0399 137.864 13.0391C137.637 13.0468 137.412 13.0767 137.19 13.1283C136.901 13.1783 136.626 13.2969 136.386 13.4753C136.145 13.6537 135.946 13.8874 135.801 14.1591C135.423 14.786 135.255 15.5029 135.255 16.2651V25.4962C135.246 25.5913 135.217 25.683 135.171 25.7647C135.138 25.7988 135.098 25.8246 135.054 25.8402C135.01 25.8558 134.964 25.8607 134.918 25.8547H132.099C131.931 25.8993 131.804 25.7647 131.762 25.5855V9.76844C131.771 9.67328 131.8 9.58146 131.847 9.49998C131.923 9.44995 132.009 9.41918 132.099 9.41H134.914C135.003 9.41917 135.09 9.44994 135.167 9.49998C135.198 9.53529 135.222 9.57771 135.237 9.62415C135.251 9.67058 135.256 9.71988 135.25 9.76844V11.2469C135.25 11.3368 135.292 11.3815 135.292 11.4261C135.314 11.4247 135.335 11.4149 135.35 11.3984C135.366 11.382 135.375 11.3601 135.377 11.3368C135.924 9.90305 136.85 9.23077 138.07 9.23077C138.535 9.14153 138.998 9.18615 139.419 9.45462Z" fill="#3A3A3A"/>
<path d="M147.706 11.8744C147.673 11.9083 147.633 11.9338 147.589 11.9493C147.546 11.9647 147.499 11.9696 147.454 11.9636H145.56C145.477 11.9636 145.392 12.009 145.392 12.0982V20.6563C145.392 21.4186 145.519 21.9562 145.771 22.2247C146.107 22.4939 146.528 22.6709 146.949 22.6285H147.158C147.248 22.6378 147.334 22.6683 147.41 22.7178C147.442 22.7531 147.467 22.7956 147.481 22.8422C147.496 22.8888 147.5 22.9382 147.495 22.987V25.4961C147.486 25.5912 147.457 25.6829 147.41 25.7646C147.377 25.7987 147.338 25.8244 147.294 25.84C147.25 25.8556 147.204 25.8606 147.158 25.8545H146.106C144.718 25.8545 143.708 25.5853 142.993 25.0477C142.278 24.51 141.94 23.4793 141.94 21.9986V12.1428C141.94 12.0536 141.898 11.9636 141.815 11.9636H140.72C140.631 11.9543 140.545 11.9238 140.468 11.8744C140.436 11.839 140.412 11.7965 140.397 11.7499C140.383 11.7034 140.378 11.6539 140.384 11.6052V9.72368C140.392 9.62827 140.421 9.53621 140.468 9.45447C140.501 9.42059 140.541 9.395 140.585 9.37956C140.628 9.36413 140.675 9.35923 140.72 9.36523H141.772C141.856 9.36523 141.94 9.32061 141.94 9.23062V5.60153C141.949 5.5062 141.978 5.41422 142.025 5.33232C142.058 5.29844 142.098 5.27286 142.141 5.25742C142.185 5.24198 142.231 5.23709 142.277 5.24308H144.97C145.06 5.25234 145.146 5.28284 145.222 5.33232C145.254 5.36765 145.279 5.41016 145.293 5.45674C145.308 5.50332 145.313 5.55279 145.307 5.60153V9.186C145.307 9.27524 145.349 9.36523 145.433 9.36523H147.368C147.458 9.37449 147.544 9.40498 147.621 9.45447C147.653 9.4898 147.677 9.5323 147.691 9.57888C147.706 9.62546 147.711 9.67493 147.705 9.72368V11.6052C147.831 11.7398 147.79 11.7844 147.706 11.8744Z" fill="#3A3A3A"/>
<path d="M150.821 24.9135C149.853 24.1073 149.348 22.8528 149.39 21.5536V21.2844C149.398 21.189 149.427 21.0969 149.474 21.0152C149.507 20.9813 149.547 20.9557 149.591 20.9402C149.634 20.9248 149.681 20.9199 149.726 20.9259H152.38C152.469 20.9352 152.556 20.9657 152.633 21.0152C152.665 21.0506 152.689 21.0932 152.703 21.1397C152.718 21.1863 152.722 21.2357 152.716 21.2844V21.4636C152.718 21.7087 152.767 21.9509 152.861 22.1746C152.955 22.3984 153.092 22.5987 153.263 22.7628C153.65 23.1157 154.143 23.3069 154.652 23.3004C155.114 23.3012 155.562 23.1267 155.914 22.8081C156.077 22.6516 156.204 22.4568 156.285 22.239C156.365 22.0213 156.397 21.7866 156.377 21.5536C156.38 21.1575 156.245 20.7743 155.999 20.4775C155.746 20.209 155.451 19.9398 155.115 19.8082C154.568 19.539 154.021 19.3151 153.474 19.0913C152.427 18.6808 151.457 18.0738 150.611 17.299C149.854 16.5814 149.517 15.4614 149.517 14.0269C149.49 13.362 149.597 12.6985 149.829 12.0805C150.061 11.4625 150.414 10.9042 150.864 10.4424C151.884 9.52772 153.193 9.06291 154.524 9.14326C155.913 9.09789 157.259 9.54632 158.312 10.4871C158.771 10.9529 159.133 11.5173 159.372 12.1431C159.611 12.7689 159.723 13.4417 159.7 14.1169C159.691 14.2121 159.662 14.3039 159.615 14.3854C159.582 14.4195 159.543 14.4452 159.499 14.4608C159.455 14.4764 159.409 14.4814 159.363 14.4753H156.797C156.707 14.4658 156.621 14.4351 156.544 14.3854C156.512 14.3501 156.488 14.3076 156.474 14.2612C156.459 14.2148 156.455 14.1655 156.46 14.1169V13.9377C156.463 13.6959 156.419 13.4561 156.332 13.2327C156.245 13.0093 156.117 12.8069 155.955 12.6377C155.617 12.2878 155.164 12.0945 154.693 12.1001C154.474 12.0898 154.256 12.1259 154.05 12.2062C153.845 12.2865 153.657 12.4094 153.496 12.5678C153.336 12.7262 153.206 12.917 153.116 13.129C153.025 13.3411 152.975 13.5702 152.968 13.8031V13.9377C152.963 14.1276 152.994 14.3168 153.059 14.4937C153.124 14.6707 153.221 14.8319 153.346 14.9677C153.583 15.2284 153.852 15.4536 154.146 15.637C154.651 15.9062 155.156 16.13 155.661 16.3538C156.399 16.6581 157.116 17.0175 157.807 17.4292C158.426 17.7908 158.947 18.3154 159.321 18.953C159.795 19.673 160.031 20.5394 159.995 21.4175C160.036 22.7613 159.532 24.0158 158.564 24.8673C157.596 25.7188 156.334 26.1219 154.693 26.1219C153.052 26.1219 151.788 25.7203 150.821 24.9135Z" fill="#3A3A3A"/>
</svg>
